<?xml version="1.0" encoding="UTF-8" standalone="no"?>
<svg
   height="553.88513"
   width="1207.4196"
   style="isolation:isolate"
   viewBox="-26.477235 -8.46575 230.88817 35.167898"
   version="1.1"
   id="svg15"
   sodipodi:docname="Amazon_Pay-Logo.wine.svg"
   inkscape:version="1.1.2 (0a00cf5339, 2022-02-04)"
   xmlns:inkscape="http://www.inkscape.org/namespaces/inkscape"
   xmlns:sodipodi="http://sodipodi.sourceforge.net/DTD/sodipodi-0.dtd"
   xmlns="http://www.w3.org/2000/svg"
   xmlns:svg="http://www.w3.org/2000/svg">
  <sodipodi:namedview
     id="namedview17"
     pagecolor="#ffffff"
     bordercolor="#666666"
     borderopacity="1.0"
     inkscape:pageshadow="2"
     inkscape:pageopacity="0.0"
     inkscape:pagecheckerboard="0"
     showgrid="false"
     inkscape:zoom="0.329375"
     inkscape:cx="598.10247"
     inkscape:cy="71.347249"
     inkscape:window-width="1366"
     inkscape:window-height="708"
     inkscape:window-x="0"
     inkscape:window-y="0"
     inkscape:window-maximized="1"
     inkscape:current-layer="svg15" />
  <defs
     id="defs5">
    <clipPath
       id="a">
      <path
         d="M 0,0 H 176.515 V 33.863 H 0 Z"
         id="path2" />
    </clipPath>
  </defs>
  <g
     clip-path="url(#a)"
     fill-rule="evenodd"
     id="g13"
     transform="matrix(1.8772841,0,0,1.8772841,-16.415157,-37.544639)">
    <path
       fill="#f79c34"
       d="m 69.652,26.489 c -6.523,4.814 -15.98,7.374 -24.124,7.374 -11.413,0 -21.691,-4.219 -29.469,-11.242 -0.61,-0.552 -0.066,-1.305 0.668,-0.878 8.391,4.883 18.769,7.824 29.486,7.824 7.23,0 15.178,-1.501 22.491,-4.603 1.103,-0.467 2.028,0.727 0.948,1.525 z"
       id="path7" />
    <path
       fill="#f79c34"
       d="m 72.367,23.389 c -0.835,-1.068 -5.515,-0.506 -7.618,-0.254 -0.637,0.077 -0.736,-0.48 -0.162,-0.883 3.734,-2.623 9.853,-1.866 10.564,-0.987 0.716,0.885 -0.189,7.02 -3.687,9.947 -0.539,0.45 -1.051,0.21 -0.812,-0.384 0.788,-1.967 2.55,-6.369 1.715,-7.439 z"
       id="path9" />
    <path
       fill="#333e47"
       d="M 64.897,3.724 V 1.176 C 64.899,0.788 65.191,0.53 65.543,0.531 L 76.965,0.53 c 0.365,0 0.659,0.265 0.659,0.643 v 2.185 c -0.004,0.367 -0.313,0.845 -0.86,1.604 l -5.917,8.448 c 2.196,-0.051 4.519,0.278 6.515,1.399 0.45,0.253 0.571,0.628 0.606,0.995 v 2.719 c 0,0.375 -0.41,0.808 -0.842,0.583 -3.515,-1.842 -8.18,-2.043 -12.068,0.022 -0.397,0.212 -0.812,-0.216 -0.812,-0.591 v -2.585 c 0,-0.413 0.008,-1.121 0.425,-1.751 L 71.525,4.367 65.557,4.366 c -0.365,0 -0.658,-0.26 -0.66,-0.642 z M 23.233,19.641 H 19.758 C 19.427,19.62 19.163,19.372 19.136,19.054 L 19.139,1.219 c 0,-0.356 0.3,-0.641 0.671,-0.641 l 3.236,-0.001 c 0.338,0.017 0.61,0.273 0.631,0.599 v 2.328 h 0.066 c 0.843,-2.252 2.432,-3.303 4.573,-3.303 2.173,0 3.536,1.051 4.509,3.303 0.843,-2.252 2.757,-3.303 4.8,-3.303 1.46,0 3.049,0.601 4.022,1.952 1.103,1.502 0.877,3.678 0.877,5.592 L 42.52,19 c 0,0.355 -0.299,0.641 -0.67,0.641 h -3.47 c -0.35,-0.022 -0.624,-0.298 -0.624,-0.64 L 37.755,9.546 c 0,-0.75 0.065,-2.626 -0.098,-3.339 -0.259,-1.202 -1.037,-1.54 -2.042,-1.54 -0.844,0 -1.72,0.563 -2.077,1.463 -0.357,0.902 -0.324,2.402 -0.324,3.416 V 19 c 0,0.355 -0.3,0.641 -0.67,0.641 h -3.471 c -0.349,-0.022 -0.624,-0.298 -0.624,-0.64 L 28.445,9.546 c 0,-1.989 0.325,-4.915 -2.14,-4.915 -2.498,0 -2.4,2.851 -2.4,4.915 L 23.903,19 c 0,0.355 -0.3,0.641 -0.67,0.641 z M 87.488,3.842 c -2.562,0 -2.724,3.489 -2.724,5.666 0,2.177 -0.032,6.831 2.693,6.831 2.692,0 2.822,-3.753 2.822,-6.042 0,-1.501 -0.066,-3.303 -0.52,-4.729 C 89.37,4.329 88.591,3.842 87.488,3.842 Z M 87.457,0.201 c 5.157,0 7.946,4.43 7.946,10.059 0,5.44 -3.081,9.757 -7.946,9.757 -5.061,0 -7.818,-4.429 -7.818,-9.945 0,-5.555 2.789,-9.871 7.818,-9.871 z m 14.635,19.44 h -3.463 c -0.347,-0.022 -0.623,-0.298 -0.623,-0.64 L 98,1.16 c 0.03,-0.327 0.318,-0.582 0.668,-0.582 l 3.223,-0.001 c 0.304,0.016 0.554,0.222 0.618,0.499 v 2.728 h 0.065 c 0.974,-2.44 2.335,-3.603 4.735,-3.603 1.557,0 3.082,0.563 4.055,2.102 0.908,1.426 0.908,3.827 0.908,5.554 V 19.08 c -0.038,0.316 -0.322,0.561 -0.666,0.561 h -3.483 c -0.322,-0.02 -0.581,-0.257 -0.619,-0.561 V 9.397 c 0,-1.952 0.228,-4.805 -2.173,-4.805 -0.843,0 -1.622,0.563 -2.011,1.426 -0.487,1.089 -0.552,2.177 -0.552,3.379 V 19 c -0.006,0.355 -0.306,0.641 -0.676,0.641 z M 59.294,19.597 c -0.229,0.206 -0.56,0.22 -0.82,0.081 -1.154,-0.959 -1.361,-1.402 -1.992,-2.316 -1.907,1.943 -3.258,2.526 -5.729,2.526 -2.925,0 -5.201,-1.806 -5.201,-5.416 0,-2.821 1.529,-4.739 3.706,-5.679 1.885,-0.828 4.518,-0.978 6.534,-1.204 V 7.138 c 0,-0.829 0.065,-1.805 -0.423,-2.52 -0.423,-0.64 -1.235,-0.903 -1.95,-0.903 -1.326,0 -2.503,0.679 -2.793,2.086 -0.061,0.313 -0.289,0.624 -0.603,0.64 L 46.654,6.076 C 46.37,6.011 46.054,5.783 46.135,5.349 46.9,1.32 50.498,0.064 53.768,0.03 h 0.258 c 1.674,0.021 3.812,0.48 5.114,1.729 1.691,1.58 1.527,3.686 1.527,5.981 v 5.413 c 0,1.629 0.677,2.343 1.312,3.22 0.223,0.317 0.272,0.692 -0.011,0.924 -0.71,0.595 -1.971,1.69 -2.664,2.308 z m -3.502,-8.472 c 0,1.354 0.032,2.482 -0.65,3.686 -0.553,0.977 -1.431,1.579 -2.406,1.579 -1.332,0 -2.112,-1.015 -2.112,-2.52 0,-2.96 2.654,-3.498 5.168,-3.498 z m -42.049,8.472 c -0.23,0.206 -0.562,0.22 -0.821,0.081 C 11.767,18.719 11.56,18.276 10.93,17.362 9.022,19.305 7.672,19.888 5.201,19.888 2.276,19.888 0,18.082 0,14.472 0,11.651 1.527,9.733 3.706,8.793 5.591,7.965 8.224,7.815 10.239,7.589 V 7.138 c 0,-0.829 0.066,-1.805 -0.422,-2.52 C 9.394,3.978 8.581,3.715 7.867,3.715 6.541,3.715 5.362,4.394 5.074,5.801 5.014,6.114 4.785,6.425 4.47,6.441 L 1.102,6.076 C 0.817,6.011 0.501,5.783 0.583,5.349 1.346,1.32 4.945,0.064 8.216,0.03 h 0.258 c 1.674,0.021 3.812,0.48 5.114,1.729 1.69,1.58 1.527,3.686 1.527,5.981 v 5.413 c 0,1.629 0.677,2.343 1.312,3.22 0.221,0.317 0.272,0.692 -0.011,0.924 -0.71,0.595 -1.972,1.69 -2.665,2.308 z m -3.504,-8.472 c 0,1.354 0.033,2.482 -0.65,3.686 -0.552,0.977 -1.43,1.579 -2.406,1.579 -1.332,0 -2.112,-1.015 -2.112,-2.52 0,-2.96 2.655,-3.498 5.168,-3.498 z"
       id="path11"
       sodipodi:nodetypes="ccccscccccsccssccccsccccccccscscccsccccscssscccsccssssscsssssssccccccccscscsccsscscscccssccscscccccccssccccscsscscccssccscscccccccssccccscsscs" />
  </g>
  <text
     xml:space="preserve"
     style="font-style:normal;font-weight:normal;font-size:37.6631px;line-height:1.25;font-family:sans-serif;fill:#333e47;fill-opacity:1;stroke:none;stroke-width:0.392324"
     x="16.594191"
     y="52.402428"
     id="text1485"><tspan
       sodipodi:role="line"
       id="tspan1483"
       style="font-style:normal;font-variant:normal;font-weight:normal;font-stretch:normal;font-size:37.6631px;font-family:Dyuthi;-inkscape-font-specification:Dyuthi;stroke-width:0.392324;fill:#333e47;fill-opacity:1"
       x="16.594191"
       y="52.402428">Gift Card</tspan></text>
</svg>
