<?xml version="1.0" encoding="UTF-8" standalone="no"?>
<!-- Created with Inkscape (http://www.inkscape.org/) -->

<svg
   version="1.1"
   id="svg55"
   width="49.748425"
   height="49.748425"
   viewBox="0 0 49.748425 49.748425"
   sodipodi:docname="iconoDeTuRemesa.svg"
   inkscape:version="1.1.2 (0a00cf5339, 2022-02-04)"
   xmlns:inkscape="http://www.inkscape.org/namespaces/inkscape"
   xmlns:sodipodi="http://sodipodi.sourceforge.net/DTD/sodipodi-0.dtd"
   xmlns:xlink="http://www.w3.org/1999/xlink"
   xmlns="http://www.w3.org/2000/svg"
   xmlns:svg="http://www.w3.org/2000/svg">
  <defs
     id="defs59">
    <linearGradient
       inkscape:collect="always"
       id="linearGradient26740">
      <stop
         style="stop-color:#06e806;stop-opacity:1;"
         offset="0"
         id="stop26736" />
      <stop
         style="stop-color:#06e806;stop-opacity:0;"
         offset="1"
         id="stop26738" />
    </linearGradient>
    <linearGradient
       inkscape:collect="always"
       id="linearGradient20468">
      <stop
         style="stop-color:#00ff00;stop-opacity:1;"
         offset="0"
         id="stop20464" />
      <stop
         style="stop-color:#00ff00;stop-opacity:0;"
         offset="1"
         id="stop20466" />
    </linearGradient>
    <linearGradient
       inkscape:collect="always"
       xlink:href="#linearGradient20468"
       id="linearGradient20470"
       x1="-22.99909"
       y1="23.316618"
       x2="-8.4635468"
       y2="23.316618"
       gradientUnits="userSpaceOnUse"
       gradientTransform="translate(59.262161,49.130775)" />
    <linearGradient
       inkscape:collect="always"
       xlink:href="#linearGradient26740"
       id="linearGradient26742"
       x1="25.012171"
       y1="30.595812"
       x2="47.014015"
       y2="32.867619"
       gradientUnits="userSpaceOnUse" />
  </defs>
  <sodipodi:namedview
     id="namedview57"
     pagecolor="#ffffff"
     bordercolor="#666666"
     borderopacity="1.0"
     inkscape:pageshadow="2"
     inkscape:pageopacity="0.0"
     inkscape:pagecheckerboard="0"
     showgrid="false"
     inkscape:zoom="1.9976415"
     inkscape:cx="36.042503"
     inkscape:cy="22.77686"
     inkscape:window-width="1366"
     inkscape:window-height="708"
     inkscape:window-x="0"
     inkscape:window-y="0"
     inkscape:window-maximized="1"
     inkscape:current-layer="g61" />
  <g
     inkscape:groupmode="layer"
     inkscape:label="Image"
     id="g61"
     transform="translate(-72.91935,-0.72581625)">
    <g
       fill="#ffffff"
       id="g17369"
       transform="matrix(1.0081139,-0.0917945,0.20144838,1.0300257,54.688878,-4.2914679)"
       style="display:inline;stroke:none;stroke-width:2.67683;stroke-linecap:round;stroke-linejoin:round;stroke-miterlimit:4;stroke-dasharray:none;stroke-opacity:1;paint-order:stroke fill markers">
      <g
         id="g26958"
         transform="translate(7.4644893,0.82709166)"
         style="stroke:none;stroke-opacity:1">
        <path
           id="path20552"
           style="display:inline;fill:#333333;fill-opacity:1;stroke:none;stroke-width:0.982235;stroke-opacity:1"
           d="m 50.798614,86.982936 c -8.027759,0 -14.535544,-6.507784 -14.535544,-14.535544 0,-8.027759 6.507785,-14.535543 14.535544,-14.535543 z"
           sodipodi:nodetypes="cscc"
           transform="matrix(1.5776413,0.14059724,-0.30854888,1.54408,-24.207655,-86.865572)" />
        <path
           id="path19468"
           style="display:inline;fill:url(#linearGradient20470);fill-opacity:1;stroke:none;stroke-width:0.982235;stroke-opacity:1"
           d="m 50.798614,86.982936 c -8.027759,0 -14.535544,-6.507784 -14.535544,-14.535544 0,-8.027759 6.507785,-14.535543 14.535544,-14.535543 z"
           sodipodi:nodetypes="cscc"
           transform="matrix(1.5776413,0.14059724,-0.30854888,1.54408,-24.207655,-86.865572)" />
        <path
           d="m 42.47,23.8 c 0.5,0.5 1.33,0.5 1.8,0 l 2.5,-2.6 c 0.53,-0.5 0.5,-1.4 -0.06,-1.94 -1.964507,-1.711114 -4.248445,-3.016221 -6.72,-3.84 l 0.79,-3.8 c 0.17,-0.83 -0.45,-1.61 -1.28,-1.61 h -4.84 c -0.623464,0.0067 -1.157225,0.448707 -1.28,1.06 l -0.7,3.38 c -6.44,0.33 -11.9,3.6 -11.9,10.3 0,5.8 4.51,8.29 9.28,10 4.51,1.72 6.9,2.36 6.9,4.78 0,2.49 -2.38,3.95 -5.9,3.95 -3.2,0 -6.56,-1.07 -9.16,-3.68 -0.507855,-0.508697 -1.332145,-0.508697 -1.84,0 l -2.7,2.7 c -0.528897,0.53073 -0.528897,1.38927 0,1.92 2.1,2.07 4.76,3.57 7.792,4.4 l -0.74,3.57 c -0.17,0.83 0.44,1.6 1.27,1.61 l 4.85,0.04 c 0.630988,0.0028 1.175719,-0.441366 1.3,-1.06 l 0.7,-3.39 C 40.28,49.07 45,44.8 45,38.57 45,32.83 40.3,30.41 34.6,28.44 31.34,27.23 28.52,26.4 28.52,23.91 c 0,-2.42 3.262587,-3.620154 3.262587,-3.620154 l -5.220739,23.426162 6.879202,-0.22138 c 0,0 4.70144,-22.295667 4.955106,-22.198471 1.532503,0.587204 3.014772,1.552167 4.093844,2.523843 z"
           id="path17367"
           style="fill:#4d4d4d;stroke:none;stroke-width:2.67683;stroke-linecap:round;stroke-linejoin:round;stroke-miterlimit:4;stroke-dasharray:none;stroke-opacity:1;paint-order:stroke fill markers"
           sodipodi:nodetypes="ccccccscccscssccccccccccscscccscc" />
        <path
           d="m 42.47,23.8 c 0.5,0.5 1.33,0.5 1.8,0 l 2.5,-2.6 c 0.53,-0.5 0.5,-1.4 -0.06,-1.94 -1.964507,-1.711114 -4.248445,-3.016221 -6.72,-3.84 l 0.79,-3.8 c 0.17,-0.83 -0.45,-1.61 -1.28,-1.61 h -4.84 c -0.623464,0.0067 -1.157225,0.448707 -1.28,1.06 l -0.7,3.38 c -6.44,0.33 -11.9,3.6 -11.9,10.3 0,5.8 4.51,8.29 9.28,10 4.51,1.72 6.9,2.36 6.9,4.78 0,2.49 -2.38,3.95 -5.9,3.95 -3.2,0 -6.56,-1.07 -9.16,-3.68 -0.507855,-0.508697 -1.332145,-0.508697 -1.84,0 l -2.7,2.7 c -0.528897,0.53073 -0.528897,1.38927 0,1.92 2.1,2.07 4.76,3.57 7.792,4.4 l -0.74,3.57 c -0.17,0.83 0.44,1.6 1.27,1.61 l 4.85,0.04 c 0.630988,0.0028 1.175719,-0.441366 1.3,-1.06 l 0.7,-3.39 C 40.28,49.07 45,44.8 45,38.57 45,32.83 40.3,30.41 34.6,28.44 31.34,27.23 28.52,26.4 28.52,23.91 c 0,-2.42 3.262587,-3.620154 3.262587,-3.620154 l -5.220739,23.426162 6.879202,-0.22138 c 0,0 4.70144,-22.295667 4.955106,-22.198471 1.532503,0.587204 3.014772,1.552167 4.093844,2.523843 z"
           id="path22298"
           style="fill:url(#linearGradient26742);fill-opacity:1;stroke:none;stroke-width:2.67683;stroke-linecap:round;stroke-linejoin:round;stroke-miterlimit:4;stroke-dasharray:none;stroke-opacity:1;paint-order:stroke fill markers"
           sodipodi:nodetypes="ccccccscccscssccccccccccscscccscc" />
      </g>
    </g>
  </g>
</svg>
