<?xml version="1.0" encoding="UTF-8"?>
<svg width="4560px" height="661px" viewBox="0 0 4560 661" version="1.1" xmlns="http://www.w3.org/2000/svg" xmlns:xlink="http://www.w3.org/1999/xlink">
    <g id="ScamAdviser-10-logo---Definitief" transform="translate(50.148405, 50.399328)">
        <g id="Group" transform="translate(0.000000, -0.000000)">
            <g transform="translate(0.000000, 0.000000)" id="Path">
                <path d="M2.85159468,52.1006716 C-6.74840532,143.200672 -6.74840532,398.700672 251.751595,558.600672 C503.251595,403.200672 510.851595,161.900672 499.751595,52.6006716 C322.651595,-17.1993284 150.651595,-17.6993284 2.85159468,52.1006716 Z" fill="#CC1517" fill-rule="nonzero"/>
                <path d="M397.051595,91.5006716 L499.251595,92.5006716 C354.551595,215.000672 260.351595,324.800672 206.751595,459.400672 C180.451595,391.100672 122.251595,306.600672 39.7515947,246.400672 L62.0515947,224.600672 C98.4515947,233.200672 177.451595,284.300672 199.151595,316.200672 C250.751595,242.300672 291.751595,174.000672 397.051595,91.5006716 L397.051595,91.5006716 Z" fill="#FFFFFF"/>
            </g>
            <path d="M657.051595,328.800672 C657.051595,335.900672 658.051595,342.000672 660.051595,347.000672 C666.151595,363.700672 684.851595,367.200672 701.051595,367.200672 C715.251595,367.200672 736.451595,362.600672 736.451595,341.900672 C736.451595,327.200672 724.351595,323.700672 676.251595,310.000672 C632.251595,297.400672 581.651595,285.200672 581.651595,229.000672 C581.651595,164.700672 636.751595,136.900672 693.951595,136.900672 C754.651595,136.900672 807.751595,160.200672 810.351595,228.000672 L729.351595,228.000672 C730.851595,217.400672 726.351595,210.300672 719.251595,205.700672 C712.151595,200.600672 702.551595,198.600672 693.951595,198.600672 C682.351595,198.600672 663.051595,201.600672 663.051595,217.300672 C664.551595,237.000672 704.551595,241.600672 744.051595,252.200672 C783.551595,263.300672 822.451595,281.500672 822.451595,332.600672 C822.451595,405.000672 755.651595,428.700672 693.451595,428.700672 C662.051595,428.700672 571.551595,417.600672 571.051595,328.500672 L657.051595,328.500672 L657.051595,328.800672 Z" id="Path" fill="#434343" fill-rule="nonzero"/>
            <path d="M1017.35159,247.400672 C1015.85159,237.300672 1007.75159,206.400672 972.351595,206.400672 C932.351595,206.400672 919.251595,245.400672 919.251595,282.800672 C919.251595,320.200672 931.851595,359.200672 972.351595,359.200672 C1001.15159,359.200672 1012.35159,339.000672 1017.35159,312.700672 L1101.85159,312.700672 C1101.85159,368.900672 1056.35159,428.600672 974.851595,428.600672 C884.751595,428.600672 833.651595,364.800672 833.651595,282.900672 C833.651595,194.900672 889.351595,137.200672 974.851595,137.200672 C1051.25159,137.700672 1093.25159,177.700672 1100.85159,247.500672 C1100.75159,247.400672 1017.35159,247.400672 1017.35159,247.400672 Z" id="Path" fill="#434343" fill-rule="nonzero"/>
            <path d="M1198.45159,143.700672 L1282.45159,143.700672 L1384.15159,422.500672 L1295.15159,422.500672 L1283.55159,382.500672 L1195.05159,382.500672 L1182.45159,422.500672 L1096.45159,422.500672 L1198.45159,143.700672 Z M1265.75159,322.800672 L1240.95159,236.800672 L1239.95159,236.800672 L1213.15159,322.800672 L1265.75159,322.800672 Z" id="Shape" fill="#434343" fill-rule="nonzero"/>
            <polygon id="Path" fill="#434343" fill-rule="nonzero" points="1401.85159 143.700672 1523.75159 143.700672 1563.75159 307.600672 1564.75159 307.600672 1604.75159 143.700672 1726.65159 143.700672 1726.65159 422.500672 1645.65159 422.500672 1645.65159 243.300672 1644.65159 243.300672 1596.05159 421.900672 1532.25159 421.900672 1483.85159 243.300672 1482.85159 243.300672 1482.85159 421.900672 1401.85159 421.900672"/>
            <path d="M1846.05159,143.700672 L1930.05159,143.700672 L2031.75159,422.500672 L1942.75159,422.500672 L1931.15159,382.500672 L1842.65159,382.500672 L1830.05159,422.500672 L1744.05159,422.500672 L1846.05159,143.700672 Z M1913.35159,322.800672 L1888.55159,236.800672 L1887.55159,236.800672 L1860.75159,322.800672 L1913.35159,322.800672 Z" id="Shape" fill="#CC1517" fill-rule="nonzero"/>
            <path d="M2053.05159,143.700672 L2193.75159,143.700672 C2286.85159,143.700672 2319.25159,212.500672 2319.25159,282.800672 C2319.25159,368.300672 2274.25159,422.400672 2176.55159,422.400672 L2052.55159,422.400672 L2052.55159,143.700672 L2053.05159,143.700672 Z M2139.05159,351.100672 L2172.45159,351.100672 C2226.05159,351.100672 2233.65159,307.600672 2233.65159,281.800672 C2233.65159,264.100672 2228.05159,215.500672 2166.35159,215.500672 L2139.05159,215.500672 L2139.05159,351.100672 L2139.05159,351.100672 Z" id="Shape" fill="#CC1517" fill-rule="nonzero"/>
            <polygon id="Path" fill="#CC1517" fill-rule="nonzero" points="2493.75159 422.400672 2397.65159 422.400672 2314.65159 143.600672 2401.15159 143.600672 2446.65159 312.600672 2447.65159 312.600672 2492.65159 143.600672 2580.65159 143.600672"/>
            <polygon id="Path" fill="#CC1517" fill-rule="nonzero" points="2596.45159 143.700672 2682.45159 143.700672 2682.45159 422.500672 2596.45159 422.500672"/>
            <path d="M2794.75159,328.800672 C2794.75159,335.900672 2795.75159,342.000672 2797.75159,347.000672 C2803.85159,363.700672 2822.55159,367.200672 2838.75159,367.200672 C2852.95159,367.200672 2874.15159,362.600672 2874.15159,341.900672 C2874.15159,327.200672 2862.05159,323.700672 2813.95159,310.000672 C2769.95159,297.400672 2719.35159,285.200672 2719.35159,229.000672 C2719.35159,164.700672 2774.45159,136.900672 2831.65159,136.900672 C2892.35159,136.900672 2945.45159,160.200672 2948.05159,228.000672 L2867.05159,228.000672 C2868.55159,217.400672 2864.05159,210.300672 2856.95159,205.700672 C2849.85159,200.600672 2840.25159,198.600672 2831.65159,198.600672 C2820.05159,198.600672 2800.75159,201.600672 2800.75159,217.300672 C2802.25159,237.000672 2842.25159,241.600672 2881.75159,252.200672 C2921.25159,263.300672 2960.15159,281.500672 2960.15159,332.600672 C2960.15159,405.000672 2893.35159,428.700672 2831.15159,428.700672 C2799.75159,428.700672 2709.25159,417.600672 2708.75159,328.500672 L2794.75159,328.500672 L2794.75159,328.800672 Z" id="Path" fill="#CC1517" fill-rule="nonzero"/>
            <polygon id="Path" fill="#CC1517" fill-rule="nonzero" points="2986.55159 143.700672 3217.25159 143.700672 3217.25159 215.000672 3072.55159 215.000672 3072.55159 249.900672 3204.05159 249.900672 3204.05159 316.200672 3072.55159 316.200672 3072.55159 351.100672 3221.85159 351.100672 3221.85159 422.400672 2986.55159 422.400672"/>
            <path d="M3261.25159,143.700672 L3424.65159,143.700672 C3473.25159,143.700672 3515.75159,170.500672 3515.75159,223.100672 C3515.75159,251.900672 3502.55159,282.300672 3473.75159,292.900672 C3497.05159,302.000672 3511.65159,327.800672 3514.75159,362.200672 C3515.75159,375.900672 3516.25159,409.300672 3524.35159,421.900672 L3438.35159,421.900672 C3434.35159,407.700672 3432.25159,393.600672 3431.25159,378.900672 C3428.75159,352.600672 3426.65159,324.800672 3392.75159,324.800672 L3347.25159,324.800672 L3347.25159,421.900672 L3261.25159,421.900672 L3261.25159,143.700672 Z M3347.25159,265.600672 L3392.25159,265.600672 C3408.45159,265.600672 3430.15159,263.100672 3430.15159,237.800672 C3430.15159,220.100672 3420.55159,210.000672 3387.65159,210.000672 L3347.65159,210.000672 L3347.25159,265.600672 L3347.25159,265.600672 Z" id="Shape" fill="#CC1517" fill-rule="nonzero"/>
        </g>
        <rect id="Rectangle" fill="#434343" fill-rule="nonzero" x="3688.05159" y="0.300671556" width="578.2" height="397.4"/>
        <path d="M4194.15159,605.400672 L3661.15159,605.400672 L3661.15159,72.4006716 L4194.15159,72.4006716 L4194.15159,605.400672 Z M3667.25159,599.400672 L4188.25159,599.400672 L4188.25159,78.4006716 L3667.25159,78.4006716 L3667.25159,599.400672 L3667.25159,599.400672 Z" id="Shape" stroke="#FFFFFF" stroke-width="10" fill="#FFFFFF" fill-rule="nonzero"/>
        <rect id="Rectangle" fill="#CC1517" fill-rule="nonzero" x="3656.45159" y="82.9006716" width="527" height="472.3"/>
        <g id="Group" transform="translate(3740.751595, 162.600672)" fill="#FFFFFF" fill-rule="nonzero">
            <path d="M39.9,308.3 L39.9,85.8 L4.54747351e-13,85.8 L4.54747351e-13,41.1 C31.2,38.5 44.7,29 51.2,4.7 L111.1,4.7 L111.1,308.3 L39.9,308.3 L39.9,308.3 Z" id="Path"/>
            <path d="M252.4,313.1 C186.5,313.1 147.9,261.9 147.9,157 C147.9,52 187.4,0 253.3,0 C319.7,0 358.3,51.6 358.3,156.1 C358.3,261 318.8,313.1 252.4,313.1 Z M252.9,61.9 C231.2,61.9 220.8,81.9 220.8,156 C220.8,230.6 231.6,251 253.3,251 C275,251 285.4,231 285.4,156.9 C285.4,82.8 274.6,61.9 252.9,61.9 Z" id="Shape"/>
        </g>
        <g id="Group" transform="translate(4309.451595, 0.300672)" fill="#434343" fill-rule="nonzero">
            <path d="M91.4,479.1 L147.7,479.1 L147.7,514 L92,514 L2.2,553.1 L2.2,514.7 L21.5,508.1 C37.3,502.7 52.5,498.1 63.5,496.5 C52.5,495 37.3,490.3 21.5,484.9 L2.2,478.3 L2.2,440.3 L91.4,479.1 Z" id="Path"/>
            <polygon id="Path" points="147.7 427.6 2.3 427.6 2.3 342.4 32 342.4 32 393.1 56.9 393.1 56.9 360.1 86.4 360.1 86.4 393.1 118 393.1 118 340.9 147.7 340.9"/>
            <path d="M147.7,255 L120.7,260.4 L120.7,289.1 L147.7,294.3 L147.7,330 L2.3,292.4 L2.3,256.7 L147.7,219.3 L147.7,255 Z M87.6,267 C68.5,270.3 52.7,273.4 39.4,274.9 C52.7,276.1 68.5,279.1 87.8,282.6 L92.4,283.4 L92.4,266.2 L87.6,267 Z" id="Shape"/>
            <path d="M147.7,144.4 L92,161.4 L92,170.7 L147.7,170.7 L147.7,204.8 L2.3,204.8 L2.3,154.5 C2.3,128.3 14.1,109.4 46.6,109.4 C65.5,109.4 77.8,116.7 84.8,128.5 L147.8,107.3 L147.8,144.4 L147.7,144.4 Z M29.9,157.1 L29.9,170.8 L65.4,170.8 L65.4,157.7 C65.4,147.7 59.6,144 47.5,144 C35.5,144 29.9,147.5 29.9,157.1 Z" id="Shape"/>
            <path d="M149.9,47.2 C149.9,69.8 140.5,82.9 124.6,95 L103.2,71.3 C114.8,61.5 120.9,53.6 120.9,46.6 C120.9,39.3 117.2,34.1 109.3,34.1 C101.2,34.1 96.2,36.4 88.9,52.8 C76.2,81.7 65.2,92.3 42.4,92.3 C18.7,92.3 0,75.1 0,47.2 C0,24.8 8.1,13.5 23.1,1.5 L44.7,25.6 C32.9,35.6 29.1,39.1 29.1,48.2 C29.1,54.8 34.1,58.6 39.5,58.6 C47.2,58.6 51.6,54.9 58,40.1 C70.9,10.8 82.9,-2.84217094e-14 107.2,-2.84217094e-14 C134.4,-2.84217094e-14 149.9,20.2 149.9,47.2 Z" id="Path"/>
        </g>
    </g>
</svg>