<?xml version="1.0" encoding="UTF-8" standalone="no"?>
<svg
   height="111.26269"
   width="455.64603"
   viewBox="-18.537885 -7.5445 61.004043 6.29566"
   version="1.1"
   id="svg14"
   sodipodi:docname="PayPal-Logo.svg"
   inkscape:version="1.1.2 (0a00cf5339, 2022-02-04)"
   xmlns:inkscape="http://www.inkscape.org/namespaces/inkscape"
   xmlns:sodipodi="http://sodipodi.sourceforge.net/DTD/sodipodi-0.dtd"
   xmlns="http://www.w3.org/2000/svg"
   xmlns:svg="http://www.w3.org/2000/svg">
  <defs
     id="defs18" />
  <sodipodi:namedview
     id="namedview16"
     pagecolor="#ffffff"
     bordercolor="#666666"
     borderopacity="1.0"
     inkscape:pageshadow="2"
     inkscape:pageopacity="0.0"
     inkscape:pagecheckerboard="0"
     showgrid="false"
     inkscape:zoom="0.329375"
     inkscape:cx="1173.4345"
     inkscape:cy="-262.6186"
     inkscape:window-width="1366"
     inkscape:window-height="708"
     inkscape:window-x="0"
     inkscape:window-y="0"
     inkscape:window-maximized="1"
     inkscape:current-layer="svg14" />
  <g
     id="g309"
     transform="matrix(0.49361657,0,0,0.49361657,-10.985886,-4.1412389)">
    <path
       d="m 30.938099,-9.0803084 h -6.839 a 0.95,0.95 0 0 0 -0.939,0.8020012 l -2.766,17.5370264 a 0.57,0.57 0 0 0 0.564,0.6580012 h 3.265 a 0.95,0.95 0 0 0 0.939,-0.8030012 l 0.746,-4.7300072 a 0.95,0.95 0 0 1 0.938,-0.8030012 h 2.165 c 4.505,0 7.105,-2.1800032 7.784,-6.50001 0.306,-1.8900028 0.013,-3.3750052 -0.872,-4.4150068 -0.972,-1.1420016 -2.696,-1.7460024 -4.985,-1.7460024 z m 0.789,6.4050096 c -0.374,2.45400375 -2.249,2.45400375 -4.062,2.45400375 h -1.032 l 0.724,-4.58300695 a 0.57,0.57 0 0 1 0.563,-0.4810008 h 0.473 c 1.235,0 2.4,0 3.002,0.7040012 0.359,0.4200004 0.469,1.0440016 0.332,1.9060028 z m 19.654,-0.079 h -3.275 a 0.57,0.57 0 0 0 -0.563,0.4810004 l -0.145,0.9160016 -0.229,-0.3320004 c -0.709,-1.0290016 -2.29,-1.3730024 -3.868,-1.3730024 -3.619,0 -6.71,2.74100455 -7.312,6.5860104 -0.313,1.9180028 0.132,3.7520056 1.22,5.0310076 0.998,1.1760016 2.426,1.6660026 4.125,1.6660026 2.916,0 4.533,-1.875003 4.533,-1.875003 l -0.146,0.9100012 a 0.57,0.57 0 0 0 0.562,0.6600012 h 2.95 a 0.95,0.95 0 0 0 0.939,-0.8030012 l 1.77,-11.2090172 a 0.568,0.568 0 0 0 -0.561,-0.6580008 z m -4.565,6.3740096 c -0.316,1.8710028 -1.801,3.1270048 -3.695,3.1270048 -0.951,0 -1.711,-0.3050004 -2.199,-0.8830012 -0.484,-0.5740008 -0.668,-1.391002 -0.514,-2.3010036 0.295,-1.8550028 1.805,-3.1520049 3.67,-3.1520049 0.93,0 1.686,0.30900085 2.184,0.8920017 0.499,0.5890008 0.697,1.411002 0.554,2.3170032 z m 22.007,-6.3740096 h -3.291 a 0.954,0.954 0 0 0 -0.787,0.4170004 l -4.539,6.6860104 -1.924,-6.42501 a 0.953,0.953 0 0 0 -0.912,-0.6780008 h -3.234 a 0.57,0.57 0 0 0 -0.541,0.7540008 l 3.625,10.6380164 -3.408,4.8109996 a 0.57,0.57 0 0 0 0.465,0.899999 h 3.287 a 0.949,0.949 0 0 0 0.781,-0.408 l 10.946,-15.8000146 a 0.57,0.57 0 0 0 -0.468,-0.8950012 z"
       fill="#253b80"
       id="path2" />
    <path
       d="m 79.719099,-9.0803084 h -6.84 a 0.95,0.95 0 0 0 -0.938,0.8020012 l -2.766,17.5370264 a 0.569,0.569 0 0 0 0.562,0.6580012 h 3.51 a 0.665,0.665 0 0 0 0.656,-0.5620008 l 0.785,-4.9710076 a 0.95,0.95 0 0 1 0.938,-0.8030012 h 2.164 c 4.506,0 7.105,-2.1800032 7.785,-6.50001 0.307,-1.8900028 0.012,-3.3750052 -0.873,-4.4150068 -0.971,-1.1420016 -2.694,-1.7460024 -4.983,-1.7460024 z m 0.789,6.4050096 c -0.373,2.45400375 -2.248,2.45400375 -4.062,2.45400375 h -1.031 l 0.725,-4.58300695 a 0.568,0.568 0 0 1 0.562,-0.4810008 h 0.473 c 1.234,0 2.4,0 3.002,0.7040012 0.359,0.4200004 0.468,1.0440016 0.331,1.9060028 z m 19.653001,-0.079 h -3.273001 a 0.567,0.567 0 0 0 -0.562,0.4810004 l -0.145,0.9160016 -0.23,-0.3320004 c -0.709,-1.0290016 -2.289,-1.3730024 -3.867,-1.3730024 -3.619,0 -6.709,2.74100455 -7.311,6.5860104 -0.312,1.9180028 0.131,3.7520056 1.219,5.0310076 1,1.1760016 2.426,1.6660026 4.125,1.6660026 2.916,0 4.533,-1.875003 4.533,-1.875003 l -0.146,0.9100012 a 0.57,0.57 0 0 0 0.564,0.6600012 h 2.949 a 0.95,0.95 0 0 0 0.938,-0.8030012 L 100.7261,-2.096298 a 0.571,0.571 0 0 0 -0.565,-0.6580008 z m -4.565001,6.3740096 c -0.314,1.8710028 -1.801,3.1270048 -3.695,3.1270048 -0.949,0 -1.711,-0.3050004 -2.199,-0.8830012 -0.484,-0.5740008 -0.666,-1.391002 -0.514,-2.3010036 0.297,-1.8550028 1.805,-3.1520049 3.67,-3.1520049 0.93,0 1.686,0.30900085 2.184,0.8920017 0.501,0.5890008 0.699,1.411002 0.554,2.3170032 z M 104.02209,-8.5993076 101.2151,9.2587192 a 0.569,0.569 0 0 0 0.56199,0.6580012 h 2.822 c 0.469,0 0.867,-0.3400004 0.939,-0.8030012 l 2.768,-17.5360268 a 0.57,0.57 0 0 0 -0.562,-0.6590008 h -3.16 a 0.571,0.571 0 0 0 -0.562,0.4820008 z"
       fill="#179bd7"
       id="path4" />
    <path
       d="m -8.0069015,13.324718 0.523,-3.321998 -1.1649998,-0.027 h -5.5629997 l 3.866,-24.513029 a 0.316,0.316 0 0 1 0.314,-0.268 h 9.37999946 c 3.11400004,0 5.26300004,0.648 6.38500004,1.927 0.526,0.6 0.861,1.227 1.023,1.917 0.17,0.724 0.173,1.5890008 0.007,2.6440024 l -0.012,0.077 v 0.6760012 l 0.526,0.2980004 a 3.69,3.69 0 0 1 1.065,0.8120012 c 0.45,0.5130008 0.741,1.1650016 0.864,1.9380028 0.127,0.7950012 0.085,1.7410024 -0.123,2.812004 -0.24,1.2320012 -0.628,2.305003 -1.152,3.1830043 a 6.547,6.547 0 0 1 -1.825,2.0000032 c -0.696,0.4940008 -1.523,0.8690012 -2.458,1.1090016 -0.906,0.2360004 -1.939,0.3550004 -3.07200004,0.3550004 h -0.73 c -0.522,0 -1.02899996,0.1880004 -1.42699996,0.5250008 a 2.21,2.21 0 0 0 -0.744,1.328002 l -0.055,0.2990004 -0.924,5.8550033 -0.042,0.215 c -0.011,0.068 -0.03,0.101999 -0.058,0.124999 a 0.155,0.155 0 0 1 -0.096,0.035 z"
       fill="#253b80"
       id="path6" />
    <path
       d="m 7.7750985,-8.1623072 c -0.028,0.1790004 -0.06,0.3620008 -0.096,0.5500008 -1.237,6.3510096 -5.469,8.5450132 -10.874,8.5450132 h -2.752 c -0.661,0 -1.218,0.4800008 -1.321,1.132002 l -1.4089998,8.9360122 -0.399,2.532997 a 0.704,0.704 0 0 0 0.6949998,0.813999 h 4.881 c 0.578,0 1.069,-0.42 1.16,-0.989999 l 0.048,-0.247999 0.919,-5.8320026 0.059,-0.3200004 c 0.09,-0.5720008 0.58199996,-0.9920016 1.15999996,-0.9920016 h 0.73 c 4.72900004,0 8.43100004,-1.9200028 9.51299954,-7.4760116 0.452,-2.3210032 0.218,-4.2590064 -0.9779995,-5.6220084 a 4.667,4.667 0 0 0 -1.336,-1.0300016 z"
       fill="#179bd7"
       id="path8" />
    <path
       d="m 6.4810985,-8.678308 a 9.757,9.757 0 0 0 -1.203,-0.2670004 15.284,15.284 0 0 0 -2.426,-0.177 h -7.352 a 1.172,1.172 0 0 0 -1.159,0.9920012 l -1.564,9.9060152 -0.045,0.2890008 a 1.336,1.336 0 0 1 1.321,-1.132002 h 2.752 c 5.405,0 9.637,-2.1950036 10.874,-8.5450132 0.037,-0.188 0.068,-0.3710004 0.096,-0.5500008 a 6.594,6.594 0 0 0 -1.017,-0.4290004 9.045,9.045 0 0 0 -0.277,-0.087 z"
       fill="#222d65"
       id="path10" />
    <path
       d="m -5.6589015,-8.1303072 a 1.169,1.169 0 0 1 1.159,-0.9910012 h 7.352 c 0.871,0 1.684,0.057 2.426,0.177 a 9.757,9.757 0 0 1 1.481,0.3530008 c 0.365,0.121 0.704,0.2640004 1.017,0.4290004 0.368,-2.3470028 -0.003,-3.9450028 -1.272,-5.3920028 -1.399,-1.593 -3.924,-2.275 -7.15500004,-2.275 H -10.030901 c -0.66,0 -1.223,0.48 -1.325,1.133 l -3.907,24.76503 a 0.806,0.806 0 0 0 0.795,0.932001 h 5.7909997 l 1.4539998,-9.225013 z"
       fill="#253b80"
       id="path12" />
  </g>
</svg>
