<?xml version="1.0" encoding="UTF-8" standalone="no"?>
<!-- Creator: CorelDRAW X8 -->

<svg
   xml:space="preserve"
   width="169.333mm"
   height="169.333mm"
   version="1.1"
   style="shape-rendering:geometricPrecision; text-rendering:geometricPrecision; image-rendering:optimizeQuality; fill-rule:evenodd; clip-rule:evenodd"
   viewBox="0 0 16933 16933"
   id="svg13"
   sodipodi:docname="zinli-seeklogo.com.svg"
   inkscape:version="1.1.2 (0a00cf5339, 2022-02-04)"
   xmlns:inkscape="http://www.inkscape.org/namespaces/inkscape"
   xmlns:sodipodi="http://sodipodi.sourceforge.net/DTD/sodipodi-0.dtd"
   xmlns="http://www.w3.org/2000/svg"
   xmlns:svg="http://www.w3.org/2000/svg"><sodipodi:namedview
   id="namedview15"
   pagecolor="#ffffff"
   bordercolor="#666666"
   borderopacity="1.0"
   inkscape:pageshadow="2"
   inkscape:pageopacity="0.0"
   inkscape:pagecheckerboard="0"
   inkscape:document-units="mm"
   showgrid="false"
   inkscape:zoom="0.82343916"
   inkscape:cx="310.89121"
   inkscape:cy="319.99936"
   inkscape:window-width="1366"
   inkscape:window-height="708"
   inkscape:window-x="0"
   inkscape:window-y="0"
   inkscape:window-maximized="1"
   inkscape:current-layer="_1378156579136" />
 <defs
   id="defs4">
  <style
   type="text/css"
   id="style2">
   <![CDATA[
    .fil0 {fill:#5A37B3}
    .fil1 {fill:#32CC96;fill-rule:nonzero}
   ]]>
  </style>
 </defs>
 <g
   id="Capa_x0020_1"
   inkscape:label="Capa 1"
   inkscape:groupmode="layer">
  <metadata
   id="CorelCorpID_0Corel-Layer" />
  <g
   id="_1378156579136">
   <rect
   class="fil0"
   x="4390"
   y="6415"
   width="8154"
   height="4104"
   rx="796"
   ry="914"
   id="rect7"
   style="display:inline" />
   <path
   class="fil1"
   d="M 7086,9839 H 5789 l 413,-472 h 884 c 33,0 60,27 60,61 v 351 c 0,33 -27,60 -60,60 z M 9656,7922 v 977 L 8487,7872 c -8,-7 -18,-10 -28,-10 -24,0 -43,19 -43,42 v 1875 c 0,33 27,60 61,60 h 350 c 34,0 61,-27 61,-60 v -973 l 1169,1023 c 8,7 18,10 28,10 v 0 c 24,0 43,-19 43,-43 V 7922 c 0,-33 -27,-60 -61,-60 h -351 c -33,0 -60,27 -60,60 z M 8091,7389 c 0,163 -132,295 -295,295 -163,0 -295,-132 -295,-295 0,-163 132,-295 295,-295 163,0 295,132 295,295 z m 3867,0 c 0,163 -132,295 -295,295 -163,0 -295,-132 -295,-295 0,-163 132,-295 295,-295 163,0 295,132 295,295 z M 10541,9779 V 7155 c 0,-34 27,-61 61,-61 h 351 c 33,0 61,27 61,61 v 2624 c 0,33 -28,60 -61,60 h -351 c -34,0 -61,-27 -61,-60 z m 886,0 V 7922 c 0,-33 27,-60 61,-60 h 350 c 34,0 61,27 61,60 v 1857 c 0,33 -27,60 -61,60 h -350 c -34,0 -61,-27 -61,-60 z M 6792,7862 H 6615 5229 c -33,0 -60,27 -60,60 v 351 c 0,34 27,61 60,61 h 977 L 4990,9739 c -34,39 -6,100 46,100 h 430 c 17,0 34,-7 46,-21 L 7118,7962 c 35,-39 7,-100 -46,-100 z m 768,1917 V 7922 c 0,-33 27,-60 61,-60 h 350 c 34,0 61,27 61,60 v 1857 c 0,33 -27,60 -61,60 h -350 c -34,0 -61,-27 -61,-60 z"
   id="path9"
   style="display:inline" />
  </g>
 </g>
</svg>
